<svg xmlns="http://www.w3.org/2000/svg" viewBox="0 0 143.58 128.9"><defs><style>.cls-1{fill:#152344;}.cls-2{fill:#fad200;}.cls-3{fill:#fff;}</style></defs><title>dgd</title><g id="图层_2" data-name="图层 2"><g id="Layer_1" data-name="Layer 1"><g id="图层_2-2" data-name="图层 2"><g id="Layer_1-2" data-name="Layer 1"><rect class="cls-1" width="143.58" height="128.9"/></g></g><rect class="cls-2" x="31.47" y="45.86" width="26.93" height="11.27"/><path class="cls-3" d="M61.63,60.66H31.47V83H70.26V45.86H61.63ZM40.1,75.14V68.56H61.63v6.58Z"/><polygon class="cls-3" points="81.95 75.14 81.95 53.57 112.11 53.57 112.11 45.86 81.95 45.86 73.33 45.86 73.33 53.57 73.33 75.14 73.33 83.04 81.95 83.04 103.48 83.04 112.11 83.04 112.11 75.14 112.11 68.56 112.11 60.66 103.48 60.66 88.6 60.66 88.6 68.56 103.48 68.56 103.48 75.14 81.95 75.14"/></g></g></svg>