<svg xmlns="http://www.w3.org/2000/svg" viewBox="0 0 143.58 128.9"><defs><style>.cls-1{fill:#fff;}</style></defs><title>eos</title><g id="图层_2" data-name="图层 2"><g id="Layer_1" data-name="Layer 1"><g id="图层_2-2" data-name="图层 2"><g id="Layer_1-2" data-name="Layer 1"><rect width="143.58" height="128.9"/></g></g><path class="cls-1" d="M91.24,81.55a.47.47,0,0,0,0-.1.47.47,0,0,0,0-.18s0,0,0,0L84.69,53.09a.51.51,0,0,0-.08-.17L72.3,35.4a.5.5,0,0,0-.41-.21h0a.5.5,0,0,0-.41.21L58.81,52.92a.5.5,0,0,0-.08.18L52.3,81.27s0,0,0,0a.47.47,0,0,0,0,.18.47.47,0,0,0,0,.09s0,0,0,0a.49.49,0,0,0,.14.14l0,0h0L71.62,93.64a.5.5,0,0,0,.26.08h0a.5.5,0,0,0,.25-.07L91.06,81.76l0,0a.49.49,0,0,0,.13-.13S91.23,81.56,91.24,81.55ZM72.38,37.25l11.28,16-3,9.67-8.39-14.4ZM71.29,48.57,62.86,63.06,59.77,53.3l11.61-16Zm.5,1.13,8.49,14.57L75.17,80.85H68.5L63.27,64.35ZM81,65.45l9,15.39-13.71,0Zm-6.1,16.41-3,9.68-3.06-9.67Zm-7.41-1-13.8,0,8.93-15.36Zm.32,1L71,92.07,54.54,81.88Zm8.14,0H89.06L72.76,92.07ZM89.55,78.2,81.36,64.15l2.78-9ZM59.29,55.11l2.89,9.12L54,78.29Z"/></g></g></svg>