<svg xmlns="http://www.w3.org/2000/svg" xmlns:xlink="http://www.w3.org/1999/xlink" viewBox="0 0 143.58 128.9"><defs><style>.cls-1{fill:url(#未命名的渐变_40);}.cls-2{fill:#fff;}</style><linearGradient id="未命名的渐变_40" x1="3.67" y1="-3.67" x2="139.91" y2="132.57" gradientUnits="userSpaceOnUse"><stop offset="0" stop-color="#083c6b"/><stop offset="0.19" stop-color="#104d79"/><stop offset="0.56" stop-color="#26799d"/><stop offset="1" stop-color="#44b6cf"/></linearGradient></defs><title>golem_1</title><g id="图层_2" data-name="图层 2"><g id="Layer_1" data-name="Layer 1"><g id="图层_2-2" data-name="图层 2"><g id="Layer_1-2" data-name="Layer 1"><rect class="cls-1" width="143.58" height="128.9"/></g></g><path class="cls-2" d="M38.84,66.86A6.83,6.83,0,1,1,45.67,60,6.84,6.84,0,0,1,38.84,66.86Zm0-12.47A5.63,5.63,0,1,0,44.47,60,5.64,5.64,0,0,0,38.84,54.39Z"/><path class="cls-2" d="M38.84,85a6.83,6.83,0,1,1,6.83-6.83A6.84,6.84,0,0,1,38.84,85Zm0-12.47a5.63,5.63,0,1,0,5.63,5.63A5.64,5.64,0,0,0,38.84,72.5Z"/><path class="cls-2" d="M57.44,66.86A6.83,6.83,0,1,1,64.27,60,6.84,6.84,0,0,1,57.44,66.86Zm0-12.47A5.63,5.63,0,1,0,63.07,60,5.64,5.64,0,0,0,57.44,54.39Z"/><rect class="cls-2" x="38.24" y="66.26" width="1.2" height="5.64"/><rect class="cls-2" x="42.4" y="53.01" width="5.68" height="1.2" transform="translate(-24.73 48.58) rotate(-45.73)"/><rect class="cls-2" x="70.32" y="47.95" width="1.2" height="18.53"/><rect class="cls-2" x="103.85" y="54.32" width="1.2" height="12.16"/><polygon class="cls-2" points="112.56 66.48 111.36 66.48 111.36 55.17 97.54 55.17 97.54 66.48 96.34 66.48 96.34 53.97 112.56 53.97 112.56 66.48"/><path class="cls-2" d="M84.17,66.86A6.83,6.83,0,1,1,91,59.49l.05.65H78.54a5.63,5.63,0,0,0,9.7,3.79l.87.83A6.78,6.78,0,0,1,84.17,66.86Zm-5.53-7.92H89.7a5.63,5.63,0,0,0-11.06,0Z"/></g></g></svg>