<svg xmlns="http://www.w3.org/2000/svg" viewBox="0 0 143.58 128.9"><defs><style>.cls-1{fill:#1a53f0;}.cls-2{fill:#fff;}</style></defs><title>omg</title><g id="图层_2" data-name="图层 2"><g id="Layer_1" data-name="Layer 1"><rect class="cls-1" width="143.58" height="128.9"/><path class="cls-2" d="M60,71.45A11.12,11.12,0,1,0,71.13,82.57,11.13,11.13,0,0,0,60,71.45Zm0,18.83a7.72,7.72,0,1,1,7.72-7.72A7.73,7.73,0,0,1,60,90.28Z"/><path class="cls-2" d="M83.57,48A11.12,11.12,0,1,0,94.68,59.07,11.13,11.13,0,0,0,83.57,48Zm0,18.83a7.72,7.72,0,1,1,7.72-7.72A7.73,7.73,0,0,1,83.57,66.79Z"/><path class="cls-2" d="M71,51.37V48H60a11.15,11.15,0,1,0,8,3.41Zm-3.23,7.71A7.72,7.72,0,1,1,60,51.36h.14A7.72,7.72,0,0,1,67.73,59.07Z"/></g></g></svg>