<svg xmlns="http://www.w3.org/2000/svg" viewBox="0 0 143.58 128.9"><defs><style>.cls-1{fill:#00aadf;}.cls-2{fill:#fff;}</style></defs><title>qtum</title><g id="图层_2" data-name="图层 2"><g id="Layer_1" data-name="Layer 1"><g id="图层_2-2" data-name="图层 2"><g id="Layer_1-2" data-name="Layer 1"><rect class="cls-1" width="143.58" height="128.9"/></g></g><path class="cls-2" d="M105.73,89.21a3.8,3.8,0,0,0-2.6,1l-7.64-6.33,5.83-17.1a2.49,2.49,0,0,0,.34,0,2.52,2.52,0,0,0,0-5,2.48,2.48,0,0,0-.3,0L96.48,46.79a2.51,2.51,0,1,0-2.92-4L80.69,33.34A2.51,2.51,0,1,0,76,31.79H60.31a2.51,2.51,0,1,0-4.74,1.54L42.65,42.76a2.51,2.51,0,1,0-2.92,4L34.85,61.84a2.48,2.48,0,0,0-.3,0,2.52,2.52,0,0,0,0,5,2.48,2.48,0,0,0,.3,0l4.87,15.05a2.51,2.51,0,1,0,2.92,4l12.92,9.41a2.51,2.51,0,1,0,4.74,1.57l15.65.2a2.51,2.51,0,1,0,4.72-1.56L94.91,84.69l7.6,6.29a3.81,3.81,0,1,0,3.22-1.77Zm-27.31,4.9a2.5,2.5,0,0,0-1,.23L70.08,84.06a2.5,2.5,0,0,0,.68-1.55L83.41,81a2.51,2.51,0,0,0,.93,1.28L79,94.18A2.51,2.51,0,0,0,78.42,94.11Zm-19.5,0a2.39,2.39,0,0,0-1.66-.18l-5.32-11.7A2.51,2.51,0,0,0,52.86,81l12.9,1.56A2.5,2.5,0,0,0,66.4,84ZM57.84,34.79a2.49,2.49,0,0,0,1.06-.24l7.52,10.31a2.5,2.5,0,0,0-.66,1.53L52.86,48a2.51,2.51,0,0,0-.94-1.27l5.35-12A2.51,2.51,0,0,0,57.84,34.79Zm19.55-.23a2.42,2.42,0,0,0,1.6.16l5.36,12A2.51,2.51,0,0,0,83.42,48l-12.66-1.6a2.5,2.5,0,0,0-.68-1.56Zm-6.75,47a2.5,2.5,0,0,0-.75-1.13l7.74-13.72a2.3,2.3,0,0,0,1.39.05l5.29,11.38a2.5,2.5,0,0,0-1,1.85ZM53,80a2.5,2.5,0,0,0-1-1.85l5.28-11.37a2.35,2.35,0,0,0,1.42-.08l8,13.75a2.5,2.5,0,0,0-.73,1.11Zm0-31,12.9-1.61a2.5,2.5,0,0,0,.72,1.1L58.67,62a2.35,2.35,0,0,0-1.45-.08L52,50.8A2.5,2.5,0,0,0,53,49Zm30.32,0a2.5,2.5,0,0,0,1,1.85L79,61.9a2.3,2.3,0,0,0-1.42.05L69.9,48.46a2.5,2.5,0,0,0,.74-1.11Zm-15,30.87a2.49,2.49,0,0,0-.82.15l-8-13.76a2.5,2.5,0,0,0,.8-1.39H75.95a2.5,2.5,0,0,0,.85,1.43L69,80A2.49,2.49,0,0,0,68.26,79.82Zm0-30.74a2.49,2.49,0,0,0,.8-.14l7.72,13.49a2.5,2.5,0,0,0-.84,1.42H60.28a2.5,2.5,0,0,0-.79-1.38l7.94-13.54A2.49,2.49,0,0,0,68.26,49.08ZM85.8,77.66a2.5,2.5,0,0,0-.6.08L79.9,66.36a2.51,2.51,0,0,0,1-1.55H91.46a2.5,2.5,0,0,0,.92,1.49L86.49,77.77A2.49,2.49,0,0,0,85.8,77.66Zm5.67-13.81H80.88a2.51,2.51,0,0,0-1-1.53l5.26-11.11a2.27,2.27,0,0,0,1.33,0l5.86,11.19A2.5,2.5,0,0,0,91.46,63.85Zm-41-12.55a2.5,2.5,0,0,0,.62-.09l5.25,11.08a2.51,2.51,0,0,0-1,1.56H44.8a2.5,2.5,0,0,0-.9-1.47l5.86-11.19A2.49,2.49,0,0,0,50.48,51.3ZM44.8,64.81H55.34a2.51,2.51,0,0,0,1,1.57L51.08,77.74a2.28,2.28,0,0,0-1.3,0L43.89,66.3A2.5,2.5,0,0,0,44.8,64.81Zm42.54,13.4,5.89-11.47.34.07.83,16.52-6.15-2.63a2.48,2.48,0,0,0-.91-2.5Zm6.27-16.36a2.49,2.49,0,0,0-.4.08L87.36,50.74a2.46,2.46,0,0,0,.88-2.51l5-2.19a2.51,2.51,0,0,0,1.42,1Zm-.8-16.69-5,2.19a2.48,2.48,0,0,0-2.63-1l-5.36-12a2.53,2.53,0,0,0,.26-.21L93,43.53a2.42,2.42,0,0,0-.18,1.62ZM76.6,34,69.3,44.27a2.46,2.46,0,0,0-2.1,0L59.68,34a2.5,2.5,0,0,0,.63-1.23H76A2.5,2.5,0,0,0,76.6,34Zm-20.2.33L51,46.33a2.48,2.48,0,0,0-2.63,1l-5-2.2a2.43,2.43,0,0,0-.18-1.61l12.92-9.43A2.53,2.53,0,0,0,56.4,34.33ZM43,46l5,2.2a2.47,2.47,0,0,0,.89,2.5L43.05,61.93a2.49,2.49,0,0,0-.41-.08L41.59,47A2.51,2.51,0,0,0,43,46Zm-.37,20.79a2.49,2.49,0,0,0,.39-.08l5.9,11.47A2.48,2.48,0,0,0,48,80.66l-5,2a2.51,2.51,0,0,0-1.45-1Zm.77,16.76,5-2a2.47,2.47,0,0,0,2.69,1.07l5.32,11.7-.25.21L43.22,85.12a2.49,2.49,0,0,0,.24-1.06A2.52,2.52,0,0,0,43.41,83.58Zm16.29,11.1L67.18,84.6a2.45,2.45,0,0,0,2.12,0L76.6,94.9A2.51,2.51,0,0,0,76,96.12l-15.65-.2A2.5,2.5,0,0,0,59.69,94.68Zm20.18-.1,5.36-12a2.48,2.48,0,0,0,2.65-1L94,84.2,80.09,94.76Zm15.41-13-.74-14.78a2.51,2.51,0,0,0,1.86-2h2.79a2.51,2.51,0,0,0,1.22,1.69Zm3.91-17.7H96.4a2.51,2.51,0,0,0-1.82-1.94l1-14.78,4.86,15A2.51,2.51,0,0,0,99.18,63.85ZM40.64,47.11l1,14.8a2.51,2.51,0,0,0-1.82,1.94H37a2.51,2.51,0,0,0-1.25-1.71ZM37,64.81h2.85a2.51,2.51,0,0,0,1.82,1.94l-1,14.8-4.87-15A2.51,2.51,0,0,0,37,64.81Z"/></g></g></svg>