<svg xmlns="http://www.w3.org/2000/svg" viewBox="0 0 112.61 44"><defs><style>.cls-1{fill:#4c6bd8;}.cls-2{fill:#fff;}</style></defs><title>logo</title><g id="Layer_2" data-name="Layer 2"><g id="Layer_1-2" data-name="Layer 1"><path class="cls-1" d="M54.64,15.7v-.16l-.18.25-.11.16a6,6,0,0,0-1.58-1,16.24,16.24,0,0,0,2.86-6.21l1.72.6q-.09.43-.38,1.34l-.05.14h2.52v1.58H56.31q-.38.91-.81,1.72h3.59V15.7H57.5v2h2v1.61h-2v2.54l1.32-1.14,1,1.12-2.28,2a7.39,7.39,0,0,0-1.23,1.23l-1.09-1.45a2.27,2.27,0,0,0,.62-1.88V19.29H53.71V17.67h2.12v-2Zm5.05,9.47-1.16-1.32q1.09-1.1,2-1.9V16.13h-1V14.58h2.68V22q1,1.36,3.7,1.3a30.74,30.74,0,0,0,4.38-.15,4.93,4.93,0,0,0-.42,1.76l-2,.05q-1.12,0-1.94,0-3.17,0-4.47-1.5A15.33,15.33,0,0,0,59.69,25.17Zm1.16-11.76q-1-2.23-1.7-3.42l1.63-.49a21.37,21.37,0,0,1,1.52,3Zm1.68-1.21V10.61H64.6c0-.07,0-.18.07-.31q.27-1,.36-1.45l1.58.42-.05.2q-.18.72-.33,1.14h3.33V12.2h-3.8q-.6,2-1.14,3.37h1.21V13h1.52v2.57h1.9v1.59h-1.9V19h2.34v1.59H67.35v2.17h-1.7V20.61H62.83V19h2.83V17.17H62.86V15.59a27.11,27.11,0,0,0,1.27-3.39Z"/><path class="cls-1" d="M79.33,24.88q-1.16-.6-2.32-1.12a12.91,12.91,0,0,1-4.35,1.63,3.72,3.72,0,0,0-1.3-1.47A17.77,17.77,0,0,0,75,22.87q-.74-.31-2.26-.89l-.36-.13Q73,21,73.68,20H71.88V18.43h2.7q.36-.71.67-1.41l1.74.6-.07.16q-.2.43-.33.65h3.48v1.39a7.11,7.11,0,0,1-1.56,2.66l1.32.6-.22.78a10.42,10.42,0,0,0,3.3-3,14.38,14.38,0,0,1-1.49-3.64,6.89,6.89,0,0,1-.54.76,4.21,4.21,0,0,0-1.32-1l-.16.25a18.78,18.78,0,0,0-2.14-1.63V17H75.45V15.5l0-.16a11.51,11.51,0,0,1-2.54,2.43,3.49,3.49,0,0,0-1.61-1.07,11.83,11.83,0,0,0,3.22-2.55H71.92V12.55h2a20.1,20.1,0,0,0-2-1.92l1.43-.89a14.13,14.13,0,0,1,1.72,1.63L74,12.55h1.43V9h1.81v3.55h1.52a4.47,4.47,0,0,0-1.27-1.05,14.65,14.65,0,0,0,1.83-1.78l1.36,1a14.3,14.3,0,0,1-1.88,1.83h1.81v1.59H77.26v1.27l1-.92a12.28,12.28,0,0,1,1.83,1.27,22.39,22.39,0,0,0,2.41-7l1.78.6Q84,10.84,83.66,12H88.1v1.72H86.88a16.56,16.56,0,0,1-1.74,7.19,11.27,11.27,0,0,0,3.57,2.84,6,6,0,0,0-1.52,1.54,15.16,15.16,0,0,1-3.13-2.74,11.52,11.52,0,0,1-3.31,2.92,5.19,5.19,0,0,0-1.27-1.14ZM78.11,20H75.74a9.11,9.11,0,0,1-.71,1.1q.85.27,1.78.67A5.22,5.22,0,0,0,78.11,20Zm5-6.29q-.24.65-.49,1.25a15.23,15.23,0,0,0,1.32,4.09A14.54,14.54,0,0,0,85,13.74Z"/><path class="cls-1" d="M89.76,13.92V12.33h1.92V8.82h1.76v3.51h1.63v1.59H93.44v2.26l1.2-.58.72,1.34-1.92,1v4.85q0,2.37-2.14,2.37A9.45,9.45,0,0,1,90,25.12a4.2,4.2,0,0,0-.4-1.72,8.12,8.12,0,0,0,1.23.16.75.75,0,0,0,.81-.83V19l-1.52.81-.92-1.56L91.68,17V13.92Zm7.88,11.56V19.34h3V17.55H97.44a15.08,15.08,0,0,1-2.1,7.77,5.09,5.09,0,0,0-1.85-.72q2.28-3.1,2.16-8.5V9.45h9.78v4.89h-3V16h3.84v1.58h-3.84v1.79h3.08v6.14h-1.74v-.94H99.42v.94ZM97.48,11v1.9h6.16V11Zm0,3.39V16h3.13V14.34Zm1.94,6.54V23h4.33V20.88Z"/><rect class="cls-1" width="43.85" height="44"/><rect class="cls-2" x="21.61" y="12.2" width="16.89" height="5.63"/><rect class="cls-2" x="27.24" y="29.09" width="5.63" height="5.63"/><path class="cls-2" d="M24.43,23.15"/><path class="cls-2" d="M21.61,23.15a5.32,5.32,0,1,1-5.32-5.32V12.2a11,11,0,1,0,11,11Z"/><path class="cls-1" d="M57.21,38.14a3.87,3.87,0,0,1-3-1.08,4.3,4.3,0,0,1-1-3.07,4.72,4.72,0,0,1,.31-1.76,3.8,3.8,0,0,1,.85-1.31,3.55,3.55,0,0,1,1.29-.81,4.64,4.64,0,0,1,1.62-.28,5.23,5.23,0,0,1,.92.07,6,6,0,0,1,.72.17,3.58,3.58,0,0,1,.52.2l.3.16-.52,1.45a4.4,4.4,0,0,0-.86-.33,4.1,4.1,0,0,0-1.11-.14,2.45,2.45,0,0,0-.81.14,1.84,1.84,0,0,0-.7.44,2.19,2.19,0,0,0-.49.79A3.3,3.3,0,0,0,55.1,34a4.19,4.19,0,0,0,.12,1,2.18,2.18,0,0,0,.39.82,1.87,1.87,0,0,0,.71.55,2.51,2.51,0,0,0,1.06.2,4.77,4.77,0,0,0,.7,0,5.1,5.1,0,0,0,.55-.11,2.84,2.84,0,0,0,.42-.14l.33-.15.49,1.44a4.18,4.18,0,0,1-1.07.41A6.25,6.25,0,0,1,57.21,38.14Z"/><path class="cls-1" d="M60.91,38V29.34l1.71-.28V32a3.44,3.44,0,0,1,.44-.11,2.76,2.76,0,0,1,.52-.05,3.23,3.23,0,0,1,1.22.2,1.9,1.9,0,0,1,.78.57,2.21,2.21,0,0,1,.41.87,4.86,4.86,0,0,1,.12,1.13V38H64.41v-3.2a2.36,2.36,0,0,0-.21-1.17.85.85,0,0,0-.79-.34,2.17,2.17,0,0,0-.43,0l-.36.09V38Z"/><path class="cls-1" d="M69.85,31.78a4,4,0,0,1,1.26.17,2,2,0,0,1,.81.49,1.83,1.83,0,0,1,.43.78,3.86,3.86,0,0,1,.13,1v3.56l-1,.19a9.83,9.83,0,0,1-1.59.11,5,5,0,0,1-1.06-.1,2.3,2.3,0,0,1-.82-.34,1.55,1.55,0,0,1-.53-.61,2.12,2.12,0,0,1-.18-.93,1.76,1.76,0,0,1,.21-.9,1.63,1.63,0,0,1,.57-.59,2.55,2.55,0,0,1,.81-.32,4.58,4.58,0,0,1,1-.1,5.3,5.3,0,0,1,.59,0,2.58,2.58,0,0,1,.42.07v-.16a1,1,0,0,0-.26-.7,1.28,1.28,0,0,0-.92-.26,5.91,5.91,0,0,0-.86.06,3.72,3.72,0,0,0-.73.18l-.22-1.38.37-.1.49-.09.56-.07Zm.14,5h.48l.37,0v-1.3l-.31,0-.38,0a3.32,3.32,0,0,0-.45,0,1.2,1.2,0,0,0-.37.11.64.64,0,0,0-.25.22.61.61,0,0,0-.09.34.59.59,0,0,0,.27.56A1.5,1.5,0,0,0,70,36.79Z"/><path class="cls-1" d="M75.9,30.19a.94.94,0,0,1-.3.74,1.09,1.09,0,0,1-1.44,0,1.05,1.05,0,0,1,0-1.48,1.09,1.09,0,0,1,1.44,0A.94.94,0,0,1,75.9,30.19ZM75.74,38H74v-6h1.71Z"/><path class="cls-1" d="M77.35,32.15a9.55,9.55,0,0,1,1.13-.24,9.26,9.26,0,0,1,1.45-.11,3.53,3.53,0,0,1,1.28.2,1.93,1.93,0,0,1,.81.57,2.22,2.22,0,0,1,.42.87,4.62,4.62,0,0,1,.13,1.13V38H80.85v-3.2a2.31,2.31,0,0,0-.22-1.17.89.89,0,0,0-.82-.34l-.39,0-.37,0V38H77.35Z"/><path class="cls-1" d="M90.13,30v1.53h-2.4V38H85.94V31.55h-2.4V30Z"/><path class="cls-1" d="M92.47,31.78a4,4,0,0,1,1.26.17,2,2,0,0,1,.81.49,1.83,1.83,0,0,1,.43.78,3.86,3.86,0,0,1,.13,1v3.56l-1,.19a9.83,9.83,0,0,1-1.59.11,5,5,0,0,1-1.06-.1,2.3,2.3,0,0,1-.82-.34,1.55,1.55,0,0,1-.53-.61,2.12,2.12,0,0,1-.18-.93,1.76,1.76,0,0,1,.21-.9,1.63,1.63,0,0,1,.57-.59,2.55,2.55,0,0,1,.81-.32,4.58,4.58,0,0,1,1-.1,5.3,5.3,0,0,1,.59,0,2.58,2.58,0,0,1,.42.07v-.16a1,1,0,0,0-.26-.7,1.28,1.28,0,0,0-.92-.26,5.91,5.91,0,0,0-.86.06,3.72,3.72,0,0,0-.73.18l-.22-1.38.37-.1.49-.09.56-.07Zm.14,5h.48l.37,0v-1.3l-.31,0-.38,0a3.32,3.32,0,0,0-.45,0,1.2,1.2,0,0,0-.37.11.64.64,0,0,0-.25.22.61.61,0,0,0-.09.34.59.59,0,0,0,.27.56A1.5,1.5,0,0,0,92.61,36.79Z"/><path class="cls-1" d="M102.27,35a3.81,3.81,0,0,1-.21,1.31,2.77,2.77,0,0,1-.61,1,2.71,2.71,0,0,1-1,.64,3.72,3.72,0,0,1-1.33.22l-.65,0L97.81,38l-.63-.11-.53-.13V29.34l1.71-.28v3a3.24,3.24,0,0,1,.6-.2,3.09,3.09,0,0,1,.67-.07,2.72,2.72,0,0,1,1.14.22,2.22,2.22,0,0,1,.83.64,2.86,2.86,0,0,1,.51,1A4.53,4.53,0,0,1,102.27,35Zm-1.75,0q0-1.65-1.22-1.65a2,2,0,0,0-.52.07,1.5,1.5,0,0,0-.42.17v3.11l.32,0,.42,0a1.23,1.23,0,0,0,1.06-.48A2.1,2.1,0,0,0,100.53,34.91Z"/><path class="cls-1" d="M106,38.1a4.26,4.26,0,0,1-1.21-.16,1.79,1.79,0,0,1-.73-.42,1.39,1.39,0,0,1-.37-.66,3.53,3.53,0,0,1-.1-.87V29.34l1.71-.28v6.58a2.27,2.27,0,0,0,0,.41.71.71,0,0,0,.13.31.7.7,0,0,0,.28.21,1.55,1.55,0,0,0,.49.1Z"/><path class="cls-1" d="M106.94,35a3.69,3.69,0,0,1,.25-1.41,3,3,0,0,1,.65-1,2.7,2.7,0,0,1,.92-.61,2.9,2.9,0,0,1,1.07-.21,2.67,2.67,0,0,1,2,.79,3.24,3.24,0,0,1,.75,2.31c0,.1,0,.21,0,.33s0,.22,0,.32h-3.88a1.14,1.14,0,0,0,.49.84,2,2,0,0,0,1.17.31,4.94,4.94,0,0,0,.92-.09,3.51,3.51,0,0,0,.74-.21l.23,1.39a2.46,2.46,0,0,1-.37.14l-.51.12-.6.09a6.09,6.09,0,0,1-.64,0,3.81,3.81,0,0,1-1.42-.24,2.76,2.76,0,0,1-1-.66,2.62,2.62,0,0,1-.59-1A3.94,3.94,0,0,1,106.94,35Zm4-.65a1.79,1.79,0,0,0-.07-.43,1.06,1.06,0,0,0-.2-.37,1.05,1.05,0,0,0-.33-.26,1.09,1.09,0,0,0-.5-.1,1.16,1.16,0,0,0-.49.1,1,1,0,0,0-.34.26,1.16,1.16,0,0,0-.21.37,2.43,2.43,0,0,0-.11.43Z"/></g></g></svg>