<svg xmlns="http://www.w3.org/2000/svg" viewBox="0 0 99.02 44"><defs><style>.cls-1{fill:#225cff;}.cls-2{fill:#fff;}</style></defs><title>Asset 9</title><g id="Layer_2" data-name="Layer 2"><g id="Layer_1-2" data-name="Layer 1"><path class="cls-1" d="M54.21,17.46v-.13l-.14.2-.08.13a4.63,4.63,0,0,0-1.22-.78A12.55,12.55,0,0,0,55,12.07l1.33.46q-.07.34-.29,1l0,.11h1.95v1.22H55.5q-.29.7-.63,1.33h2.77v1.23H56.43V19h1.51v1.25H56.43v2l1-.88.77.87-1.76,1.58a5.71,5.71,0,0,0-1,1l-.84-1.12a1.75,1.75,0,0,0,.48-1.46v-1.9H53.5V19h1.64V17.46Zm3.91,7.32-.9-1q.84-.85,1.53-1.47V17.79H58v-1.2h2.07V22.3a3.3,3.3,0,0,0,2.86,1,23.76,23.76,0,0,0,3.39-.11A3.81,3.81,0,0,0,66,24.55l-1.55,0q-.87,0-1.5,0a4.39,4.39,0,0,1-3.46-1.16A11.85,11.85,0,0,0,58.12,24.78Zm.9-9.09Q58.23,14,57.7,13L59,12.67A16.51,16.51,0,0,1,60.14,15Zm1.3-.94V13.52h1.6c0-.06,0-.14.06-.24q.21-.74.28-1.12l1.22.32,0,.15q-.14.56-.25.88h2.58v1.23H62.81q-.46,1.51-.88,2.6h.94v-2H64v2h1.47v1.23H64V20h1.81v1.23H64v1.68H62.73V21.25H60.54V20h2.18V18.59H60.57V17.37a21,21,0,0,0,1-2.62Z"/><path class="cls-1" d="M73.3,24.55q-.9-.46-1.79-.87a10,10,0,0,1-3.36,1.26,2.88,2.88,0,0,0-1-1.13A13.73,13.73,0,0,0,70,23l-1.75-.69-.28-.1q.5-.66,1-1.41H67.54V19.57h2.09q.28-.55.52-1.09l1.34.46-.06.13q-.15.34-.25.5h2.69v1.08a5.49,5.49,0,0,1-1.2,2.06l1,.46-.17.6a8.05,8.05,0,0,0,2.55-2.28,11.11,11.11,0,0,1-1.15-2.81,5.32,5.32,0,0,1-.42.59,3.25,3.25,0,0,0-1-.77l-.13.2a14.52,14.52,0,0,0-1.65-1.26v1H70.3V17.18a8.89,8.89,0,0,1-2,1.88,2.7,2.7,0,0,0-1.25-.83,9.14,9.14,0,0,0,2.49-2h-2V15h1.51a15.54,15.54,0,0,0-1.51-1.48l1.11-.69A10.92,10.92,0,0,1,70,14.11l-.81.91H70.3V12.28h1.4V15h1.18a3.46,3.46,0,0,0-1-.81,11.32,11.32,0,0,0,1.41-1.37l1,.77A11.05,11.05,0,0,1,72.9,15h1.4v1.23H71.7v1l.8-.71a9.49,9.49,0,0,1,1.41,1,17.3,17.3,0,0,0,1.86-5.38l1.37.46q-.24,1.12-.5,2h3.43v1.33h-.94a12.8,12.8,0,0,1-1.34,5.56,8.71,8.71,0,0,0,2.76,2.2,4.61,4.61,0,0,0-1.18,1.19A11.71,11.71,0,0,1,77,22.78,8.9,8.9,0,0,1,74.39,25a4,4,0,0,0-1-.88Zm-.94-3.75H70.52a7,7,0,0,1-.55.85q.66.21,1.37.52A4,4,0,0,0,72.36,20.8Zm3.85-4.86q-.18.5-.38,1a11.77,11.77,0,0,0,1,3.16,11.24,11.24,0,0,0,.85-4.13Z"/><path class="cls-1" d="M81.36,16.08V14.85h1.48V12.14H84.2v2.72h1.26v1.23H84.2v1.75l.92-.45.56,1-1.48.8V23q0,1.83-1.65,1.83a7.3,7.3,0,0,1-1-.07,3.24,3.24,0,0,0-.31-1.33,6.27,6.27,0,0,0,1,.13.58.58,0,0,0,.63-.64V20l-1.18.63L81,19.4l1.89-.91V16.08ZM87.45,25V20.27h2.3V18.88H87.3a11.65,11.65,0,0,1-1.62,6,3.93,3.93,0,0,0-1.43-.56,10.43,10.43,0,0,0,1.67-6.57V12.63h7.56v3.78H91.13v1.26h3v1.22h-3v1.39h2.38V25H92.17v-.73H88.82V25Zm-.13-11.23v1.47h4.76V13.79Zm0,2.62v1.26h2.42V16.41Zm1.5,5.05V23.1h3.35V21.46Z"/><rect class="cls-1" width="43.85" height="44"/><rect class="cls-2" x="21.61" y="12.2" width="16.89" height="5.63"/><rect class="cls-2" x="27.24" y="29.09" width="5.63" height="5.63"/><path class="cls-2" d="M24.43,23.15"/><path class="cls-2" d="M21.61,23.15a5.32,5.32,0,1,1-5.32-5.32V12.2a11,11,0,1,0,11,11Z"/><path class="cls-1" d="M56.2,34.8A3,3,0,0,1,53.92,34a3.33,3.33,0,0,1-.79-2.37,3.65,3.65,0,0,1,.24-1.36,2.93,2.93,0,0,1,.66-1,2.74,2.74,0,0,1,1-.63,3.59,3.59,0,0,1,1.25-.21,4,4,0,0,1,.71.06,4.63,4.63,0,0,1,.56.13,2.76,2.76,0,0,1,.4.16l.23.12L57.77,30a3.4,3.4,0,0,0-.66-.26,3.17,3.17,0,0,0-.86-.11,1.9,1.9,0,0,0-.63.11,1.42,1.42,0,0,0-.54.34,1.69,1.69,0,0,0-.38.61,2.55,2.55,0,0,0-.14.91,3.24,3.24,0,0,0,.09.79A1.68,1.68,0,0,0,55,33a1.44,1.44,0,0,0,.55.42,1.94,1.94,0,0,0,.82.16,3.68,3.68,0,0,0,.54,0l.43-.08.33-.11.26-.12.38,1.11a3.23,3.23,0,0,1-.83.32A4.83,4.83,0,0,1,56.2,34.8Z"/><path class="cls-1" d="M59.06,34.68V28l1.32-.21V30l.34-.08a2.13,2.13,0,0,1,.4,0,2.5,2.5,0,0,1,.95.16,1.47,1.47,0,0,1,.6.44,1.71,1.71,0,0,1,.32.67,3.76,3.76,0,0,1,.09.87v2.64H61.77V32.2a1.83,1.83,0,0,0-.16-.91A.66.66,0,0,0,61,31a1.67,1.67,0,0,0-.33,0l-.28.07v3.55Z"/><path class="cls-1" d="M66,29.88a3.08,3.08,0,0,1,1,.13,1.52,1.52,0,0,1,.63.38,1.41,1.41,0,0,1,.33.6,3,3,0,0,1,.1.79v2.75l-.79.15a7.6,7.6,0,0,1-1.23.08,3.89,3.89,0,0,1-.82-.08,1.78,1.78,0,0,1-.63-.26,1.2,1.2,0,0,1-.41-.48,1.64,1.64,0,0,1-.14-.72,1.36,1.36,0,0,1,.16-.69,1.26,1.26,0,0,1,.44-.45,2,2,0,0,1,.63-.24,3.54,3.54,0,0,1,.74-.08l.46,0,.32.06v-.12a.73.73,0,0,0-.2-.54,1,1,0,0,0-.71-.2,4.57,4.57,0,0,0-.67,0,2.87,2.87,0,0,0-.57.14l-.17-1.07L64.7,30l.38-.07.43-.05Zm.11,3.87h.37l.28,0v-1l-.24,0-.29,0-.35,0a.93.93,0,0,0-.29.08.5.5,0,0,0-.2.17.47.47,0,0,0-.07.27.45.45,0,0,0,.21.43A1.16,1.16,0,0,0,66.08,33.75Z"/><path class="cls-1" d="M70.65,28.66a.73.73,0,0,1-.24.57.84.84,0,0,1-1.11,0,.81.81,0,0,1,0-1.15.84.84,0,0,1,1.11,0A.73.73,0,0,1,70.65,28.66Zm-.12,6H69.2V30h1.32Z"/><path class="cls-1" d="M71.77,30.17a7.38,7.38,0,0,1,.87-.18,7.16,7.16,0,0,1,1.12-.08,2.72,2.72,0,0,1,1,.16,1.49,1.49,0,0,1,.63.44,1.71,1.71,0,0,1,.33.67,3.57,3.57,0,0,1,.1.87v2.64H74.47V32.2a1.79,1.79,0,0,0-.17-.91.69.69,0,0,0-.63-.27h-.3l-.28,0v3.6H71.77Z"/><path class="cls-1" d="M81.65,28.52v1.18H79.79v5H78.41v-5H76.55V28.52Z"/><path class="cls-1" d="M83.46,29.88a3.08,3.08,0,0,1,1,.13,1.52,1.52,0,0,1,.63.38,1.41,1.41,0,0,1,.33.6,3,3,0,0,1,.1.79v2.75l-.79.15a7.6,7.6,0,0,1-1.23.08,3.89,3.89,0,0,1-.82-.08,1.78,1.78,0,0,1-.63-.26,1.2,1.2,0,0,1-.41-.48,1.64,1.64,0,0,1-.14-.72,1.36,1.36,0,0,1,.16-.69,1.26,1.26,0,0,1,.44-.45,2,2,0,0,1,.63-.24,3.54,3.54,0,0,1,.74-.08l.46,0,.32.06v-.12a.73.73,0,0,0-.2-.54,1,1,0,0,0-.71-.2,4.57,4.57,0,0,0-.67,0,2.87,2.87,0,0,0-.57.14L81.9,30.1l.29-.08.38-.07L83,29.9Zm.11,3.87h.37l.28,0v-1l-.24,0-.29,0-.35,0a.93.93,0,0,0-.29.08.5.5,0,0,0-.2.17.47.47,0,0,0-.07.27.45.45,0,0,0,.21.43A1.16,1.16,0,0,0,83.56,33.75Z"/><path class="cls-1" d="M91,32.34a2.94,2.94,0,0,1-.16,1,2.14,2.14,0,0,1-.47.77,2.1,2.1,0,0,1-.76.49,2.87,2.87,0,0,1-1,.17l-.5,0-.51-.06-.48-.08-.41-.1V28L88,27.79v2.33a2.51,2.51,0,0,1,.46-.15,2.39,2.39,0,0,1,.51-.05,2.1,2.1,0,0,1,.88.17,1.72,1.72,0,0,1,.64.49,2.21,2.21,0,0,1,.39.77A3.5,3.5,0,0,1,91,32.34Zm-1.35,0q0-1.28-.94-1.28a1.55,1.55,0,0,0-.4.05,1.16,1.16,0,0,0-.32.13v2.41l.25,0h.33a1,1,0,0,0,.82-.37A1.62,1.62,0,0,0,89.68,32.31Z"/><path class="cls-1" d="M93.91,34.77a3.29,3.29,0,0,1-.94-.12,1.39,1.39,0,0,1-.57-.32,1.07,1.07,0,0,1-.28-.51,2.73,2.73,0,0,1-.08-.67V28l1.32-.21v5.09a1.76,1.76,0,0,0,0,.32.55.55,0,0,0,.1.24.54.54,0,0,0,.22.16,1.19,1.19,0,0,0,.38.08Z"/><path class="cls-1" d="M94.63,32.38a2.85,2.85,0,0,1,.19-1.09,2.33,2.33,0,0,1,.5-.78A2.08,2.08,0,0,1,96,30a2.24,2.24,0,0,1,.83-.16,2.06,2.06,0,0,1,1.57.61A2.51,2.51,0,0,1,99,32.28c0,.08,0,.16,0,.25s0,.17,0,.24H96a.88.88,0,0,0,.38.65,1.54,1.54,0,0,0,.91.24A3.82,3.82,0,0,0,98,33.6a2.71,2.71,0,0,0,.57-.16l.18,1.07-.28.11-.4.09-.47.07-.5,0a3,3,0,0,1-1.1-.19,2.14,2.14,0,0,1-.77-.51,2,2,0,0,1-.45-.77A3,3,0,0,1,94.63,32.38Zm3.11-.51a1.38,1.38,0,0,0-.06-.33.82.82,0,0,0-.15-.28.81.81,0,0,0-.26-.2.84.84,0,0,0-.39-.08.9.9,0,0,0-.38.08.79.79,0,0,0-.27.2.89.89,0,0,0-.16.29,1.88,1.88,0,0,0-.08.33Z"/></g></g></svg>