<svg xmlns="http://www.w3.org/2000/svg" viewBox="0 0 80.21 39.43"><defs><style>.cls-1{fill:#4c6bd8;}</style></defs><title>资源 9</title><g id="图层_2" data-name="图层 2"><g id="Layer_1" data-name="Layer 1"><path class="cls-1" d="M2.5,9.35V9.13c-.06.08-.15.19-.24.34l-.15.22A8,8,0,0,0,0,8.33,21.77,21.77,0,0,0,3.84,0L6.14.8Q6,1.38,5.63,2.6l-.07.19H8.94V4.91H4.73Q4.23,6.12,3.64,7.21H8.45V9.35H6.34V12H9v2.16H6.34v3.4L8.11,16l1.34,1.5L6.39,20.27a9.9,9.9,0,0,0-1.65,1.65L3.28,20a3,3,0,0,0,.83-2.53v-3.3H1.26V12H4.1V9.35ZM9.28,22,7.72,20.27q1.46-1.48,2.65-2.55V9.93H9V7.84h3.59v9.91q1.38,1.82,5,1.75a41.2,41.2,0,0,0,5.88-.19,6.6,6.6,0,0,0-.56,2.36q-1.17,0-2.7.07t-2.6,0q-4.25,0-6-2A20.55,20.55,0,0,0,9.28,22ZM10.83,6.29Q9.47,3.3,8.55,1.7L10.73,1a28.64,28.64,0,0,1,2,4.05Zm2.26-1.63V2.53h2.77c0-.1,0-.23.1-.41q.36-1.29.49-1.94l2.11.56L18.48,1Q18.24,2,18,2.53h4.47V4.66h-5.1q-.8,2.62-1.53,4.52h1.63V5.73h2V9.18H22.1v2.14H19.55v2.48h3.13v2.14H19.55v2.91H17.26V15.93H13.48V13.79h3.79V11.31H13.52V9.2a36.34,36.34,0,0,0,1.7-4.54Z"/><path class="cls-1" d="M35.6,21.66q-1.55-.8-3.11-1.5a17.3,17.3,0,0,1-5.83,2.18,5,5,0,0,0-1.75-2A23.82,23.82,0,0,0,29.82,19q-1-.41-3-1.19l-.49-.17q.87-1.14,1.72-2.45h-2.4V13h3.62q.49-.95.9-1.89l2.33.8a1.92,1.92,0,0,1-.1.22q-.27.58-.44.87h4.66v1.87a9.53,9.53,0,0,1-2.09,3.57l1.77.8-.29,1a14,14,0,0,0,4.42-4,19.27,19.27,0,0,1-2-4.88,9.24,9.24,0,0,1-.73,1,5.64,5.64,0,0,0-1.77-1.34l-.22.34A25.17,25.17,0,0,0,32.83,9.3V11H30.4v-2l0-.22A15.43,15.43,0,0,1,27,12.12a4.68,4.68,0,0,0-2.16-1.43,15.86,15.86,0,0,0,4.32-3.42H25.66V5.12h2.62a27,27,0,0,0-2.62-2.57l1.92-1.19a18.94,18.94,0,0,1,2.31,2.18L28.48,5.12H30.4V.36h2.43V5.12h2a6,6,0,0,0-1.7-1.41,19.64,19.64,0,0,0,2.45-2.38l1.82,1.34a19.17,19.17,0,0,1-2.53,2.45h2.43V7.26H32.83V9l1.38-1.24a16.45,16.45,0,0,1,2.45,1.7A30,30,0,0,0,39.89.1l2.38.8q-.41,1.94-.87,3.52h5.95V6.73H45.72a22.19,22.19,0,0,1-2.33,9.64,15.11,15.11,0,0,0,4.78,3.81,8,8,0,0,0-2,2.06,20.32,20.32,0,0,1-4.2-3.67,15.44,15.44,0,0,1-4.44,3.91A7,7,0,0,0,35.79,21ZM34,15.15H30.79a12.21,12.21,0,0,1-.95,1.48q1.14.36,2.38.9A7,7,0,0,0,34,15.15Zm6.68-8.43Q40.33,7.6,40,8.4a20.41,20.41,0,0,0,1.77,5.49,19.49,19.49,0,0,0,1.48-7.16Z"/><path class="cls-1" d="M49.58,7V4.83h2.57V.12h2.36V4.83H56.7V7H54.51v3l1.6-.78,1,1.8-2.57,1.38v6.51q0,3.18-2.87,3.18a12.67,12.67,0,0,1-1.7-.12,5.62,5.62,0,0,0-.53-2.31,10.88,10.88,0,0,0,1.65.22,1,1,0,0,0,1.09-1.12v-5l-2,1.09-1.24-2.09,3.28-1.58V7ZM60.14,22.46V14.23h4v-2.4H59.88a20.21,20.21,0,0,1-2.82,10.42,6.82,6.82,0,0,0-2.48-1q3.06-4.15,2.89-11.39V1H70.59V7.53H66.53V9.71h5.15v2.11H66.53v2.4h4.13v8.23H68.33V21.2h-5.8v1.26ZM59.93,3V5.54h8.26V3Zm0,4.54V9.71h4.2V7.53Zm2.6,8.77v2.84h5.8V16.29Z"/><path class="cls-1" d="M6,39.43A5.19,5.19,0,0,1,2,38,5.77,5.77,0,0,1,.62,33.87,6.32,6.32,0,0,1,1,31.51a5.09,5.09,0,0,1,1.14-1.76A4.76,4.76,0,0,1,3.9,28.67a6.22,6.22,0,0,1,2.17-.37,7,7,0,0,1,1.23.1,8,8,0,0,1,1,.23A4.79,4.79,0,0,1,9,28.9l.4.22-.69,1.94a5.9,5.9,0,0,0-1.15-.45A5.49,5.49,0,0,0,6,30.42,3.29,3.29,0,0,0,5,30.61,2.46,2.46,0,0,0,4,31.2a2.94,2.94,0,0,0-.65,1.06,4.42,4.42,0,0,0-.25,1.57,5.61,5.61,0,0,0,.16,1.38,2.92,2.92,0,0,0,.52,1.1,2.5,2.5,0,0,0,.95.73,3.36,3.36,0,0,0,1.42.27,6.39,6.39,0,0,0,.94-.06,6.83,6.83,0,0,0,.74-.15,3.81,3.81,0,0,0,.57-.19l.45-.2.66,1.92a5.6,5.6,0,0,1-1.43.55A8.38,8.38,0,0,1,6,39.43Z"/><path class="cls-1" d="M10.91,39.21V27.64l2.29-.37v3.88a4.61,4.61,0,0,1,.59-.15,3.7,3.7,0,0,1,.7-.07,4.33,4.33,0,0,1,1.64.27,2.54,2.54,0,0,1,1,.76,3,3,0,0,1,.55,1.17,6.52,6.52,0,0,1,.16,1.51v4.57H15.6v-4.3a3.17,3.17,0,0,0-.29-1.57,1.14,1.14,0,0,0-1.05-.46,2.9,2.9,0,0,0-.58.05l-.49.12v6.16Z"/><path class="cls-1" d="M22.89,30.9a5.34,5.34,0,0,1,1.69.23,2.63,2.63,0,0,1,1.08.66,2.45,2.45,0,0,1,.58,1,5.18,5.18,0,0,1,.17,1.37V39q-.49.11-1.37.25a13.18,13.18,0,0,1-2.12.15,6.74,6.74,0,0,1-1.42-.14,3.08,3.08,0,0,1-1.1-.45,2.08,2.08,0,0,1-.71-.82,2.84,2.84,0,0,1-.25-1.25,2.36,2.36,0,0,1,.29-1.2,2.19,2.19,0,0,1,.76-.79,3.42,3.42,0,0,1,1.09-.42,6.14,6.14,0,0,1,1.28-.13,7.11,7.11,0,0,1,.79,0,3.46,3.46,0,0,1,.56.1V34.1a1.27,1.27,0,0,0-.35-.94,1.71,1.71,0,0,0-1.23-.35,7.92,7.92,0,0,0-1.16.08,5,5,0,0,0-1,.24l-.29-1.85.5-.13.65-.12.75-.09Q22.49,30.9,22.89,30.9Zm.18,6.71.65,0,.49,0V35.81l-.42-.06-.51,0a4.45,4.45,0,0,0-.61,0,1.61,1.61,0,0,0-.5.15.86.86,0,0,0-.34.29.81.81,0,0,0-.12.46.79.79,0,0,0,.36.75A2,2,0,0,0,23.07,37.61Z"/><path class="cls-1" d="M31,28.78a1.26,1.26,0,0,1-.41,1,1.46,1.46,0,0,1-1.92,0,1.41,1.41,0,0,1,0-2,1.46,1.46,0,0,1,1.92,0A1.26,1.26,0,0,1,31,28.78Zm-.22,10.44H28.49v-8.1h2.29Z"/><path class="cls-1" d="M32.94,31.39a12.81,12.81,0,0,1,1.51-.32,12.41,12.41,0,0,1,1.94-.15,4.73,4.73,0,0,1,1.72.27,2.58,2.58,0,0,1,1.09.76,3,3,0,0,1,.57,1.17,6.19,6.19,0,0,1,.17,1.51v4.57H37.64v-4.3a3.1,3.1,0,0,0-.29-1.57,1.19,1.19,0,0,0-1.09-.46l-.52,0-.49.05v6.25H32.94Z"/><path class="cls-1" d="M50.08,28.55v2H46.86v8.62h-2.4V30.59H41.24v-2Z"/><path class="cls-1" d="M53.22,30.9a5.34,5.34,0,0,1,1.69.23,2.63,2.63,0,0,1,1.08.66,2.45,2.45,0,0,1,.58,1,5.18,5.18,0,0,1,.17,1.37V39q-.49.11-1.37.25a13.18,13.18,0,0,1-2.12.15,6.74,6.74,0,0,1-1.42-.14,3.08,3.08,0,0,1-1.1-.45A2.08,2.08,0,0,1,50,38a2.84,2.84,0,0,1-.25-1.25,2.36,2.36,0,0,1,.29-1.2,2.19,2.19,0,0,1,.76-.79,3.42,3.42,0,0,1,1.09-.42,6.14,6.14,0,0,1,1.28-.13,7.11,7.11,0,0,1,.79,0,3.46,3.46,0,0,1,.56.1V34.1a1.27,1.27,0,0,0-.35-.94A1.71,1.71,0,0,0,53,32.81a7.92,7.92,0,0,0-1.16.08,5,5,0,0,0-1,.24l-.29-1.85.5-.13.65-.12.75-.09Q52.82,30.9,53.22,30.9Zm.18,6.71.65,0,.49,0V35.81l-.42-.06-.51,0a4.45,4.45,0,0,0-.61,0,1.61,1.61,0,0,0-.5.15.86.86,0,0,0-.34.29.81.81,0,0,0-.12.46.79.79,0,0,0,.36.75A2,2,0,0,0,53.4,37.61Z"/><path class="cls-1" d="M66.35,35.17a5.1,5.1,0,0,1-.29,1.75,3.71,3.71,0,0,1-.82,1.34,3.64,3.64,0,0,1-1.32.85,5,5,0,0,1-1.79.3q-.42,0-.87,0l-.89-.1c-.29,0-.57-.09-.84-.15S59,39,58.82,39V27.64l2.29-.37v4a4.35,4.35,0,0,1,.8-.26,4.14,4.14,0,0,1,.89-.09,3.65,3.65,0,0,1,1.52.3,3,3,0,0,1,1.11.85,3.83,3.83,0,0,1,.68,1.33A6.07,6.07,0,0,1,66.35,35.17ZM64,35.1q0-2.22-1.63-2.22a2.7,2.7,0,0,0-.7.09,2,2,0,0,0-.56.23v4.17l.43.05.57,0a1.65,1.65,0,0,0,1.42-.65A2.81,2.81,0,0,0,64,35.1Z"/><path class="cls-1" d="M71.35,39.37a5.71,5.71,0,0,1-1.62-.22,2.4,2.4,0,0,1-1-.56,1.86,1.86,0,0,1-.49-.88,4.73,4.73,0,0,1-.13-1.16V27.64l2.29-.37v8.82a3,3,0,0,0,0,.55,1,1,0,0,0,.18.42.94.94,0,0,0,.38.28,2.07,2.07,0,0,0,.66.14Z"/><path class="cls-1" d="M72.6,35.23a5,5,0,0,1,.33-1.89A4,4,0,0,1,73.8,32,3.61,3.61,0,0,1,75,31.18a3.88,3.88,0,0,1,1.44-.28A3.58,3.58,0,0,1,79.21,32a4.35,4.35,0,0,1,1,3.1c0,.13,0,.28,0,.44s0,.3,0,.42H75A1.53,1.53,0,0,0,75.62,37a2.66,2.66,0,0,0,1.57.41,6.62,6.62,0,0,0,1.24-.12,4.7,4.7,0,0,0,1-.28l.31,1.86a3.3,3.3,0,0,1-.49.18,6.73,6.73,0,0,1-.69.16c-.25,0-.52.08-.81.12a8.17,8.17,0,0,1-.86,0,5.11,5.11,0,0,1-1.9-.32,3.71,3.71,0,0,1-1.34-.89,3.51,3.51,0,0,1-.79-1.33A5.28,5.28,0,0,1,72.6,35.23ZM78,34.35a2.4,2.4,0,0,0-.1-.57,1.43,1.43,0,0,0-.26-.49,1.41,1.41,0,0,0-.45-.35,1.46,1.46,0,0,0-.67-.14,1.55,1.55,0,0,0-.66.13,1.37,1.37,0,0,0-.46.35,1.55,1.55,0,0,0-.29.5,3.26,3.26,0,0,0-.15.58Z"/></g></g></svg>